# xmcd
#
# Track frame offsets:
#	150
#	18750
#	31687
#	45487
#	63375
#	82275
#	98925
#	114600
#	125662
#	143625
#	163312
#	183712
#	203062
#	222000
#
# Disc length: 3375 seconds
#
# Revision: 2
# Processed by: cddbd v1.4PL0 Copyright (c) Steve Scherf et al.
# Submitted via: CDmax 1.9
#
DISCID=c50d2d0e
DTITLE=Dick Curless - Traveling Through
DYEAR=1995
DGENRE=Country
TTITLE0=King of The Blues
TTITLE1=Crazy Heart
TTITLE2=Rattlesnakin' Daddy
TTITLE3=No One Will Ever Know
TTITLE4=Just One Time
TTITLE5=Changing Times
TTITLE6=I'll Hold You in My Heart (Til' I Can Hold You In My Arms)
TTITLE7=I Am A Pilgrim
TTITLE8=When God Comes And Gathers His Jewels
TTITLE9=Freight Train Blues
TTITLE10=I Never Go Around Mirrors
TTITLE11=I Get The Blues When It Rains
TTITLE12=I Don't Have A Memory Without Her
TTITLE13=Since I Met You Jesus
EXTD=
EXTT0=
EXTT1=
EXTT2=
EXTT3=
EXTT4=
EXTT5=
EXTT6=
EXTT7=
EXTT8=
EXTT9=
EXTT10=
EXTT11=
EXTT12=
EXTT13=
PLAYORDER=
